<?xml version="1.0" encoding="UTF-8"?>
<!DOCTYPE svg PUBLIC "-//W3C//DTD SVG 1.1//EN" "http://www.w3.org/Graphics/SVG/1.1/DTD/svg11.dtd">
<svg width="332mm" height="187mm" viewBox="0 0 33200 18700" version="1.1" xmlns="http://www.w3.org/2000/svg" stroke-width="28.222" stroke-linejoin="round" xml:space="preserve">
 <path fill="rgb(255,255,255)" stroke="none" d="M 16603,18677 L 0,18677 0,0 33206,0 33206,18677 16603,18677 Z"/>
 <path fill="none" stroke="rgb(179,179,179)" stroke-linejoin="round" d="M 14213,16781 L 2244,16781 2244,2836 26182,2836 26182,16781 14213,16781 Z"/>
 <path fill="none" stroke="rgb(179,179,179)" stroke-linejoin="round" d="M 26182,16780 L 2244,16780"/>
 <path fill="none" stroke="rgb(179,179,179)" stroke-linejoin="round" d="M 26182,14455 L 2244,14455"/>
 <path fill="none" stroke="rgb(179,179,179)" stroke-linejoin="round" d="M 26182,12131 L 2244,12131"/>
 <path fill="none" stroke="rgb(179,179,179)" stroke-linejoin="round" d="M 26182,9807 L 2244,9807"/>
 <path fill="none" stroke="rgb(179,179,179)" stroke-linejoin="round" d="M 26182,7483 L 2244,7483"/>
 <path fill="none" stroke="rgb(179,179,179)" stroke-linejoin="round" d="M 26182,5159 L 2244,5159"/>
 <path fill="none" stroke="rgb(179,179,179)" stroke-linejoin="round" d="M 26182,2835 L 2244,2835"/>
 <path fill="none" stroke="rgb(179,179,179)" stroke-linejoin="round" d="M 2244,16930 L 2244,16780"/>
 <path fill="none" stroke="rgb(179,179,179)" stroke-linejoin="round" d="M 2244,16930 L 2244,16780"/>
 <path fill="none" stroke="rgb(179,179,179)" stroke-linejoin="round" d="M 5236,16930 L 5236,16780"/>
 <path fill="none" stroke="rgb(179,179,179)" stroke-linejoin="round" d="M 5236,16930 L 5236,16780"/>
 <path fill="none" stroke="rgb(179,179,179)" stroke-linejoin="round" d="M 8228,16930 L 8228,16780"/>
 <path fill="none" stroke="rgb(179,179,179)" stroke-linejoin="round" d="M 8228,16930 L 8228,16780"/>
 <path fill="none" stroke="rgb(179,179,179)" stroke-linejoin="round" d="M 11221,16930 L 11221,16780"/>
 <path fill="none" stroke="rgb(179,179,179)" stroke-linejoin="round" d="M 11221,16930 L 11221,16780"/>
 <path fill="none" stroke="rgb(179,179,179)" stroke-linejoin="round" d="M 14213,16930 L 14213,16780"/>
 <path fill="none" stroke="rgb(179,179,179)" stroke-linejoin="round" d="M 14213,16930 L 14213,16780"/>
 <path fill="none" stroke="rgb(179,179,179)" stroke-linejoin="round" d="M 17204,16930 L 17204,16780"/>
 <path fill="none" stroke="rgb(179,179,179)" stroke-linejoin="round" d="M 17204,16930 L 17204,16780"/>
 <path fill="none" stroke="rgb(179,179,179)" stroke-linejoin="round" d="M 20197,16930 L 20197,16780"/>
 <path fill="none" stroke="rgb(179,179,179)" stroke-linejoin="round" d="M 20197,16930 L 20197,16780"/>
 <path fill="none" stroke="rgb(179,179,179)" stroke-linejoin="round" d="M 23189,16930 L 23189,16780"/>
 <path fill="none" stroke="rgb(179,179,179)" stroke-linejoin="round" d="M 23189,16930 L 23189,16780"/>
 <path fill="none" stroke="rgb(179,179,179)" stroke-linejoin="round" d="M 26182,16930 L 26182,16780"/>
 <path fill="none" stroke="rgb(179,179,179)" stroke-linejoin="round" d="M 26182,16930 L 26182,16780"/>
 <path fill="none" stroke="rgb(179,179,179)" stroke-linejoin="round" d="M 2244,16780 L 26182,16780"/>
 <path fill="none" stroke="rgb(179,179,179)" stroke-linejoin="round" d="M 2094,16780 L 2244,16780"/>
 <path fill="none" stroke="rgb(179,179,179)" stroke-linejoin="round" d="M 2094,16780 L 2244,16780"/>
 <path fill="none" stroke="rgb(179,179,179)" stroke-linejoin="round" d="M 2094,14455 L 2244,14455"/>
 <path fill="none" stroke="rgb(179,179,179)" stroke-linejoin="round" d="M 2094,14455 L 2244,14455"/>
 <path fill="none" stroke="rgb(179,179,179)" stroke-linejoin="round" d="M 2094,12131 L 2244,12131"/>
 <path fill="none" stroke="rgb(179,179,179)" stroke-linejoin="round" d="M 2094,12131 L 2244,12131"/>
 <path fill="none" stroke="rgb(179,179,179)" stroke-linejoin="round" d="M 2094,9807 L 2244,9807"/>
 <path fill="none" stroke="rgb(179,179,179)" stroke-linejoin="round" d="M 2094,9807 L 2244,9807"/>
 <path fill="none" stroke="rgb(179,179,179)" stroke-linejoin="round" d="M 2094,7483 L 2244,7483"/>
 <path fill="none" stroke="rgb(179,179,179)" stroke-linejoin="round" d="M 2094,7483 L 2244,7483"/>
 <path fill="none" stroke="rgb(179,179,179)" stroke-linejoin="round" d="M 2094,5159 L 2244,5159"/>
 <path fill="none" stroke="rgb(179,179,179)" stroke-linejoin="round" d="M 2094,5159 L 2244,5159"/>
 <path fill="none" stroke="rgb(179,179,179)" stroke-linejoin="round" d="M 2094,2835 L 2244,2835"/>
 <path fill="none" stroke="rgb(179,179,179)" stroke-linejoin="round" d="M 2094,2835 L 2244,2835"/>
 <path fill="none" stroke="rgb(179,179,179)" stroke-linejoin="round" d="M 2244,16780 L 2244,2835"/>
 <path fill="none" stroke="rgb(255,66,14)" stroke-width="80" stroke-linejoin="round" d="M 4980,16213 L 5253,16147 5527,16078 5800,16006 6074,15931 6348,15853 6621,15770 6895,15684 7168,15593 7442,15497 7716,15395 7989,15299 8263,15199 8537,15096 8811,14989 9084,14878 9358,14763 9631,14644 9905,14520 10179,14391 10452,14257 10726,14128 11000,13996 11273,13861 11547,13722 11820,13580 12094,13435 12367,13286 12641,13135 12914,12980 13188,12823 13462,12654 13735,12482 14010,12305 14282,12125 14557,11941 14830,11753 15104,11562 15378,11367 15651,11170 15925,10968 16198,10766 16472,10561 16744,10353 17018,10142 17292,9930 17565,9715 17839,9499 18112,9282 18386,9061 18660,8839 18933,8606 19207,8370 19481,8131 19754,7890 20028,7645 20301,7397 20575,7145 20849,6888 21123,6625 21396,6355 21670,6087 21943,5807 22217,5512 22491,5192 22764,4833 23038,4389"/>
 <path fill="none" stroke="rgb(87,157,28)" stroke-width="80" stroke-linejoin="round" d="M 4980,16198 L 7716,15408 10452,14409 13188,12944 15925,11062 18660,8994 21396,6623 22764,5043"/>
 <path fill="none" stroke="rgb(0,69,134)" stroke-width="80" stroke-linejoin="round" d="M 4980,16245 L 5253,16187 5527,16127 5800,16067 6074,16005 6348,15941 6621,15876 6895,15809 7168,15739 7442,15668 7716,15594 7989,15523 8263,15450 8537,15375 8811,15299 9084,15221 9358,15142 9631,15060 9905,14977 10179,14891 10452,14804 10726,14718 11000,14631 11273,14542 11547,14451 11820,14359 12094,14265 12367,14170 12641,14073 12914,13974 13188,13874 13462,13769 13735,13661 14010,13551 14282,13439 14557,13324 14830,13207 15104,13087 15378,12965 15651,12840 15925,12712 16198,12582 16472,12449 16744,12314 17018,12175 17292,12033 17565,11888 17839,11739 18112,11587 18386,11431 18660,11271 18933,11101 19207,10926 19481,10745 19754,10558 20028,10364 20301,10162 20575,9951 20849,9729 21123,9496 21396,9249 21670,8993 21943,8716 22217,8412 22491,8071 22764,7669 23038,7149"/>
 <path fill="none" stroke="rgb(255,211,32)" stroke-width="80" stroke-linejoin="round" d="M 4980,16245 L 7716,15594 10452,14804 13188,13874 15925,12712 18660,11271 21396,9250 22764,7669"/>
 <text class="TextShape"><tspan class="TextParagraph" font-family="Liberation Sans, sans-serif" font-size="353px" font-weight="400"><tspan class="TextPosition" x="2151" y="17321"><tspan fill="rgb(0,0,0)" stroke="none">0</tspan></tspan></tspan></text>
 <text class="TextShape"><tspan class="TextParagraph" font-family="Liberation Sans, sans-serif" font-size="353px" font-weight="400"><tspan class="TextPosition" x="4865" y="17321"><tspan fill="rgb(0,0,0)" stroke="none">5000</tspan></tspan></tspan></text>
 <text class="TextShape"><tspan class="TextParagraph" font-family="Liberation Sans, sans-serif" font-size="353px" font-weight="400"><tspan class="TextPosition" x="7765" y="17321"><tspan fill="rgb(0,0,0)" stroke="none">10000</tspan></tspan></tspan></text>
 <text class="TextShape"><tspan class="TextParagraph" font-family="Liberation Sans, sans-serif" font-size="353px" font-weight="400"><tspan class="TextPosition" x="10758" y="17321"><tspan fill="rgb(0,0,0)" stroke="none">15000</tspan></tspan></tspan></text>
 <text class="TextShape"><tspan class="TextParagraph" font-family="Liberation Sans, sans-serif" font-size="353px" font-weight="400"><tspan class="TextPosition" x="13750" y="17321"><tspan fill="rgb(0,0,0)" stroke="none">20000</tspan></tspan></tspan></text>
 <text class="TextShape"><tspan class="TextParagraph" font-family="Liberation Sans, sans-serif" font-size="353px" font-weight="400"><tspan class="TextPosition" x="16742" y="17321"><tspan fill="rgb(0,0,0)" stroke="none">25000</tspan></tspan></tspan></text>
 <text class="TextShape"><tspan class="TextParagraph" font-family="Liberation Sans, sans-serif" font-size="353px" font-weight="400"><tspan class="TextPosition" x="19735" y="17321"><tspan fill="rgb(0,0,0)" stroke="none">30000</tspan></tspan></tspan></text>
 <text class="TextShape"><tspan class="TextParagraph" font-family="Liberation Sans, sans-serif" font-size="353px" font-weight="400"><tspan class="TextPosition" x="22727" y="17321"><tspan fill="rgb(0,0,0)" stroke="none">35000</tspan></tspan></tspan></text>
 <text class="TextShape"><tspan class="TextParagraph" font-family="Liberation Sans, sans-serif" font-size="353px" font-weight="400"><tspan class="TextPosition" x="25720" y="17321"><tspan fill="rgb(0,0,0)" stroke="none">40000</tspan></tspan></tspan></text>
 <text class="TextShape"><tspan class="TextParagraph" font-family="Liberation Sans, sans-serif" font-size="353px" font-weight="400"><tspan class="TextPosition" x="1809" y="16900"><tspan fill="rgb(0,0,0)" stroke="none">0</tspan></tspan></tspan></text>
 <text class="TextShape"><tspan class="TextParagraph" font-family="Liberation Sans, sans-serif" font-size="353px" font-weight="400"><tspan class="TextPosition" x="1624" y="14575"><tspan fill="rgb(0,0,0)" stroke="none">10</tspan></tspan></tspan></text>
 <text class="TextShape"><tspan class="TextParagraph" font-family="Liberation Sans, sans-serif" font-size="353px" font-weight="400"><tspan class="TextPosition" x="1624" y="12251"><tspan fill="rgb(0,0,0)" stroke="none">20</tspan></tspan></tspan></text>
 <text class="TextShape"><tspan class="TextParagraph" font-family="Liberation Sans, sans-serif" font-size="353px" font-weight="400"><tspan class="TextPosition" x="1624" y="9927"><tspan fill="rgb(0,0,0)" stroke="none">30</tspan></tspan></tspan></text>
 <text class="TextShape"><tspan class="TextParagraph" font-family="Liberation Sans, sans-serif" font-size="353px" font-weight="400"><tspan class="TextPosition" x="1624" y="7602"><tspan fill="rgb(0,0,0)" stroke="none">40</tspan></tspan></tspan></text>
 <text class="TextShape"><tspan class="TextParagraph" font-family="Liberation Sans, sans-serif" font-size="353px" font-weight="400"><tspan class="TextPosition" x="1624" y="5278"><tspan fill="rgb(0,0,0)" stroke="none">50</tspan></tspan></tspan></text>
 <text class="TextShape"><tspan class="TextParagraph" font-family="Liberation Sans, sans-serif" font-size="353px" font-weight="400"><tspan class="TextPosition" x="1624" y="2954"><tspan fill="rgb(0,0,0)" stroke="none">60</tspan></tspan></tspan></text>
 <text class="TextShape"><tspan class="TextParagraph" font-family="Liberation Sans, sans-serif" font-size="459px" font-weight="400"><tspan class="TextPosition" x="13957" y="1043"><tspan fill="rgb(0,0,0)" stroke="none">Calculated vs Source Data</tspan></tspan></tspan></text>
 <text class="TextShape"><tspan class="TextParagraph" font-family="Liberation Sans, sans-serif" font-size="388px" font-weight="400"><tspan class="TextPosition" x="13745" y="2095"><tspan fill="rgb(0,0,0)" stroke="none">Departure Angle and Angle of Fall</tspan></tspan></tspan></text>
 <path fill="none" stroke="rgb(255,211,32)" stroke-width="80" stroke-linejoin="round" d="M 27427,8671 L 28227,8671"/>
 <path fill="none" stroke="rgb(0,69,134)" stroke-width="80" stroke-linejoin="round" d="M 27427,9116 L 28227,9116"/>
 <path fill="none" stroke="rgb(87,157,28)" stroke-width="80" stroke-linejoin="round" d="M 27427,9560 L 28227,9560"/>
 <path fill="none" stroke="rgb(255,66,14)" stroke-width="80" stroke-linejoin="round" d="M 27427,10005 L 28227,10005"/>
 <text class="TextShape"><tspan class="TextParagraph" font-family="Liberation Sans, sans-serif" font-size="353px" font-weight="400"><tspan class="TextPosition" x="28327" y="8790"><tspan fill="rgb(0,0,0)" stroke="none">Departure Angle (source data)</tspan></tspan></tspan></text>
 <text class="TextShape"><tspan class="TextParagraph" font-family="Liberation Sans, sans-serif" font-size="353px" font-weight="400"><tspan class="TextPosition" x="28327" y="9235"><tspan fill="rgb(0,0,0)" stroke="none">Departure Angle (calculated)</tspan></tspan></tspan></text>
 <text class="TextShape"><tspan class="TextParagraph" font-family="Liberation Sans, sans-serif" font-size="353px" font-weight="400"><tspan class="TextPosition" x="28327" y="9679"><tspan fill="rgb(0,0,0)" stroke="none">Angle of Fall (source data)</tspan></tspan></tspan></text>
 <text class="TextShape"><tspan class="TextParagraph" font-family="Liberation Sans, sans-serif" font-size="353px" font-weight="400"><tspan class="TextPosition" x="28327" y="10124"><tspan fill="rgb(0,0,0)" stroke="none">Angle of Fall (calculated)</tspan></tspan></tspan></text>
 <text class="TextShape"><tspan class="TextParagraph" font-family="Liberation Sans, sans-serif" font-size="318px" font-weight="400"><tspan class="TextPosition" x="13367" y="18109"><tspan fill="rgb(0,0,0)" stroke="none">Range (m)</tspan></tspan></tspan></text>
 <text class="TextShape" transform="translate(811,11182) rotate(-90) translate(-811,-11182)"><tspan class="TextParagraph" font-family="Liberation Sans, sans-serif" font-size="318px" font-weight="400"><tspan class="TextPosition" x="811" y="11182"><tspan fill="rgb(0,0,0)" stroke="none">Angle (degrees)</tspan></tspan></tspan></text>
</svg>