<?xml version="1.0" encoding="UTF-8"?>
<!DOCTYPE svg PUBLIC "-//W3C//DTD SVG 1.1//EN" "http://www.w3.org/Graphics/SVG/1.1/DTD/svg11.dtd">
<svg width="320mm" height="180mm" viewBox="0 0 32000 18000" version="1.1" xmlns="http://www.w3.org/2000/svg" stroke-width="28.222" stroke-linejoin="round" xml:space="preserve">
 <path fill="rgb(255,255,255)" stroke="none" d="M 16014,18015 L 0,18015 0,0 32028,0 32028,18015 16014,18015 Z"/>
 <path fill="none" stroke="rgb(179,179,179)" stroke-linejoin="round" d="M 15787,16027 L 2378,16027 2378,1835 29196,1835 29196,16027 15787,16027 Z"/>
 <path fill="none" stroke="rgb(179,179,179)" stroke-linejoin="round" d="M 29196,16026 L 2378,16026"/>
 <path fill="none" stroke="rgb(179,179,179)" stroke-linejoin="round" d="M 29196,13660 L 2378,13660"/>
 <path fill="none" stroke="rgb(179,179,179)" stroke-linejoin="round" d="M 29196,11295 L 2378,11295"/>
 <path fill="none" stroke="rgb(179,179,179)" stroke-linejoin="round" d="M 29196,8930 L 2378,8930"/>
 <path fill="none" stroke="rgb(179,179,179)" stroke-linejoin="round" d="M 29196,6564 L 2378,6564"/>
 <path fill="none" stroke="rgb(179,179,179)" stroke-linejoin="round" d="M 29196,4199 L 2378,4199"/>
 <path fill="none" stroke="rgb(179,179,179)" stroke-linejoin="round" d="M 29196,1833 L 2378,1833"/>
 <path fill="none" stroke="rgb(179,179,179)" stroke-linejoin="round" d="M 2378,16176 L 2378,16026"/>
 <path fill="none" stroke="rgb(179,179,179)" stroke-linejoin="round" d="M 2378,16176 L 2378,16026"/>
 <path fill="none" stroke="rgb(179,179,179)" stroke-linejoin="round" d="M 5357,16176 L 5357,16026"/>
 <path fill="none" stroke="rgb(179,179,179)" stroke-linejoin="round" d="M 5357,16176 L 5357,16026"/>
 <path fill="none" stroke="rgb(179,179,179)" stroke-linejoin="round" d="M 8337,16176 L 8337,16026"/>
 <path fill="none" stroke="rgb(179,179,179)" stroke-linejoin="round" d="M 8337,16176 L 8337,16026"/>
 <path fill="none" stroke="rgb(179,179,179)" stroke-linejoin="round" d="M 11317,16176 L 11317,16026"/>
 <path fill="none" stroke="rgb(179,179,179)" stroke-linejoin="round" d="M 11317,16176 L 11317,16026"/>
 <path fill="none" stroke="rgb(179,179,179)" stroke-linejoin="round" d="M 14297,16176 L 14297,16026"/>
 <path fill="none" stroke="rgb(179,179,179)" stroke-linejoin="round" d="M 14297,16176 L 14297,16026"/>
 <path fill="none" stroke="rgb(179,179,179)" stroke-linejoin="round" d="M 17276,16176 L 17276,16026"/>
 <path fill="none" stroke="rgb(179,179,179)" stroke-linejoin="round" d="M 17276,16176 L 17276,16026"/>
 <path fill="none" stroke="rgb(179,179,179)" stroke-linejoin="round" d="M 20256,16176 L 20256,16026"/>
 <path fill="none" stroke="rgb(179,179,179)" stroke-linejoin="round" d="M 20256,16176 L 20256,16026"/>
 <path fill="none" stroke="rgb(179,179,179)" stroke-linejoin="round" d="M 23236,16176 L 23236,16026"/>
 <path fill="none" stroke="rgb(179,179,179)" stroke-linejoin="round" d="M 23236,16176 L 23236,16026"/>
 <path fill="none" stroke="rgb(179,179,179)" stroke-linejoin="round" d="M 26216,16176 L 26216,16026"/>
 <path fill="none" stroke="rgb(179,179,179)" stroke-linejoin="round" d="M 26216,16176 L 26216,16026"/>
 <path fill="none" stroke="rgb(179,179,179)" stroke-linejoin="round" d="M 29196,16176 L 29196,16026"/>
 <path fill="none" stroke="rgb(179,179,179)" stroke-linejoin="round" d="M 29196,16176 L 29196,16026"/>
 <path fill="none" stroke="rgb(179,179,179)" stroke-linejoin="round" d="M 2378,16026 L 29196,16026"/>
 <path fill="none" stroke="rgb(179,179,179)" stroke-linejoin="round" d="M 2228,16026 L 2378,16026"/>
 <path fill="none" stroke="rgb(179,179,179)" stroke-linejoin="round" d="M 2228,16026 L 2378,16026"/>
 <path fill="none" stroke="rgb(179,179,179)" stroke-linejoin="round" d="M 2228,13660 L 2378,13660"/>
 <path fill="none" stroke="rgb(179,179,179)" stroke-linejoin="round" d="M 2228,13660 L 2378,13660"/>
 <path fill="none" stroke="rgb(179,179,179)" stroke-linejoin="round" d="M 2228,11295 L 2378,11295"/>
 <path fill="none" stroke="rgb(179,179,179)" stroke-linejoin="round" d="M 2228,11295 L 2378,11295"/>
 <path fill="none" stroke="rgb(179,179,179)" stroke-linejoin="round" d="M 2228,8930 L 2378,8930"/>
 <path fill="none" stroke="rgb(179,179,179)" stroke-linejoin="round" d="M 2228,8930 L 2378,8930"/>
 <path fill="none" stroke="rgb(179,179,179)" stroke-linejoin="round" d="M 2228,6564 L 2378,6564"/>
 <path fill="none" stroke="rgb(179,179,179)" stroke-linejoin="round" d="M 2228,6564 L 2378,6564"/>
 <path fill="none" stroke="rgb(179,179,179)" stroke-linejoin="round" d="M 2228,4199 L 2378,4199"/>
 <path fill="none" stroke="rgb(179,179,179)" stroke-linejoin="round" d="M 2228,4199 L 2378,4199"/>
 <path fill="none" stroke="rgb(179,179,179)" stroke-linejoin="round" d="M 2228,1833 L 2378,1833"/>
 <path fill="none" stroke="rgb(179,179,179)" stroke-linejoin="round" d="M 2228,1833 L 2378,1833"/>
 <path fill="none" stroke="rgb(179,179,179)" stroke-linejoin="round" d="M 2378,16026 L 2378,1833"/>
 <path fill="none" stroke="rgb(255,211,32)" stroke-width="80" stroke-linejoin="round" d="M 3748,7631 L 5417,5102 7443,4607 9827,4806 12807,4726 16501,4674 21686,4433 25739,4315"/>
 <path fill="none" stroke="rgb(255,66,14)" stroke-width="80" stroke-linejoin="round" d="M 3748,8303 L 5417,6017 7443,5581 9827,5761 12807,5670 16501,5597 21686,5342 25739,5212"/>
 <path fill="none" stroke="rgb(0,69,134)" stroke-width="80" stroke-linejoin="round" d="M 3748,6667 L 5417,3832 7443,3298 9827,3552 12807,3501 16501,3476 21686,3239 25739,3122"/>
 <text class="TextShape"><tspan class="TextParagraph" font-family="Liberation Sans, sans-serif" font-size="353px" font-weight="400"><tspan class="TextPosition" x="2285" y="16594"><tspan fill="rgb(0,0,0)" stroke="none">0</tspan></tspan></tspan></text>
 <text class="TextShape"><tspan class="TextParagraph" font-family="Liberation Sans, sans-serif" font-size="353px" font-weight="400"><tspan class="TextPosition" x="5264" y="16594"><tspan fill="rgb(0,0,0)" stroke="none">5</tspan></tspan></tspan></text>
 <text class="TextShape"><tspan class="TextParagraph" font-family="Liberation Sans, sans-serif" font-size="353px" font-weight="400"><tspan class="TextPosition" x="8152" y="16594"><tspan fill="rgb(0,0,0)" stroke="none">10</tspan></tspan></tspan></text>
 <text class="TextShape"><tspan class="TextParagraph" font-family="Liberation Sans, sans-serif" font-size="353px" font-weight="400"><tspan class="TextPosition" x="11132" y="16594"><tspan fill="rgb(0,0,0)" stroke="none">15</tspan></tspan></tspan></text>
 <text class="TextShape"><tspan class="TextParagraph" font-family="Liberation Sans, sans-serif" font-size="353px" font-weight="400"><tspan class="TextPosition" x="14112" y="16594"><tspan fill="rgb(0,0,0)" stroke="none">20</tspan></tspan></tspan></text>
 <text class="TextShape"><tspan class="TextParagraph" font-family="Liberation Sans, sans-serif" font-size="353px" font-weight="400"><tspan class="TextPosition" x="17092" y="16594"><tspan fill="rgb(0,0,0)" stroke="none">25</tspan></tspan></tspan></text>
 <text class="TextShape"><tspan class="TextParagraph" font-family="Liberation Sans, sans-serif" font-size="353px" font-weight="400"><tspan class="TextPosition" x="20072" y="16594"><tspan fill="rgb(0,0,0)" stroke="none">30</tspan></tspan></tspan></text>
 <text class="TextShape"><tspan class="TextParagraph" font-family="Liberation Sans, sans-serif" font-size="353px" font-weight="400"><tspan class="TextPosition" x="23052" y="16594"><tspan fill="rgb(0,0,0)" stroke="none">35</tspan></tspan></tspan></text>
 <text class="TextShape"><tspan class="TextParagraph" font-family="Liberation Sans, sans-serif" font-size="353px" font-weight="400"><tspan class="TextPosition" x="26032" y="16594"><tspan fill="rgb(0,0,0)" stroke="none">40</tspan></tspan></tspan></text>
 <text class="TextShape"><tspan class="TextParagraph" font-family="Liberation Sans, sans-serif" font-size="353px" font-weight="400"><tspan class="TextPosition" x="29012" y="16594"><tspan fill="rgb(0,0,0)" stroke="none">45</tspan></tspan></tspan></text>
 <text class="TextShape"><tspan class="TextParagraph" font-family="Liberation Sans, sans-serif" font-size="353px" font-weight="400"><tspan class="TextPosition" x="1943" y="16147"><tspan fill="rgb(0,0,0)" stroke="none">0</tspan></tspan></tspan></text>
 <text class="TextShape"><tspan class="TextParagraph" font-family="Liberation Sans, sans-serif" font-size="353px" font-weight="400"><tspan class="TextPosition" x="1652" y="13781"><tspan fill="rgb(0,0,0)" stroke="none">0.2</tspan></tspan></tspan></text>
 <text class="TextShape"><tspan class="TextParagraph" font-family="Liberation Sans, sans-serif" font-size="353px" font-weight="400"><tspan class="TextPosition" x="1652" y="11416"><tspan fill="rgb(0,0,0)" stroke="none">0.4</tspan></tspan></tspan></text>
 <text class="TextShape"><tspan class="TextParagraph" font-family="Liberation Sans, sans-serif" font-size="353px" font-weight="400"><tspan class="TextPosition" x="1652" y="9050"><tspan fill="rgb(0,0,0)" stroke="none">0.6</tspan></tspan></tspan></text>
 <text class="TextShape"><tspan class="TextParagraph" font-family="Liberation Sans, sans-serif" font-size="353px" font-weight="400"><tspan class="TextPosition" x="1652" y="6684"><tspan fill="rgb(0,0,0)" stroke="none">0.8</tspan></tspan></tspan></text>
 <text class="TextShape"><tspan class="TextParagraph" font-family="Liberation Sans, sans-serif" font-size="353px" font-weight="400"><tspan class="TextPosition" x="1943" y="4319"><tspan fill="rgb(0,0,0)" stroke="none">1</tspan></tspan></tspan></text>
 <text class="TextShape"><tspan class="TextParagraph" font-family="Liberation Sans, sans-serif" font-size="353px" font-weight="400"><tspan class="TextPosition" x="1652" y="1953"><tspan fill="rgb(0,0,0)" stroke="none">1.2</tspan></tspan></tspan></text>
 <text class="TextShape"><tspan class="TextParagraph" font-family="Liberation Sans, sans-serif" font-size="459px" font-weight="400"><tspan class="TextPosition" x="12773" y="1031"><tspan fill="rgb(0,0,0)" stroke="none">Form Factor vs. Departure Angle</tspan></tspan></tspan></text>
 <path fill="none" stroke="rgb(0,69,134)" stroke-width="80" stroke-linejoin="round" d="M 30139,8509 L 30939,8509"/>
 <path fill="none" stroke="rgb(255,66,14)" stroke-width="80" stroke-linejoin="round" d="M 30139,9007 L 30939,9007"/>
 <path fill="none" stroke="rgb(255,211,32)" stroke-width="80" stroke-linejoin="round" d="M 30139,9504 L 30939,9504"/>
 <text class="TextShape"><tspan class="TextParagraph" font-family="Liberation Sans, sans-serif" font-size="353px" font-weight="400"><tspan class="TextPosition" x="31039" y="8629"><tspan fill="rgb(0,0,0)" stroke="none">KD2</tspan></tspan></tspan></text>
 <text class="TextShape"><tspan class="TextParagraph" font-family="Liberation Sans, sans-serif" font-size="353px" font-weight="400"><tspan class="TextPosition" x="31039" y="9126"><tspan fill="rgb(0,0,0)" stroke="none">KD6</tspan></tspan></tspan></text>
 <text class="TextShape"><tspan class="TextParagraph" font-family="Liberation Sans, sans-serif" font-size="353px" font-weight="400"><tspan class="TextPosition" x="31039" y="9624"><tspan fill="rgb(0,0,0)" stroke="none">KD8</tspan></tspan></tspan></text>
 <text class="TextShape"><tspan class="TextParagraph" font-family="Liberation Sans, sans-serif" font-size="318px" font-weight="400"><tspan class="TextPosition" x="14339" y="17421"><tspan fill="rgb(0,0,0)" stroke="none">Departure Angle</tspan></tspan></tspan></text>
 <text class="TextShape" transform="translate(837,10014) rotate(-90) translate(-837,-10014)"><tspan class="TextParagraph" font-family="Liberation Sans, sans-serif" font-size="318px" font-weight="400"><tspan class="TextPosition" x="837" y="10014"><tspan fill="rgb(0,0,0)" stroke="none">Form Factor</tspan></tspan></tspan></text>
</svg>