<?xml version="1.0" encoding="UTF-8"?>
<!DOCTYPE svg PUBLIC "-//W3C//DTD SVG 1.1//EN" "http://www.w3.org/Graphics/SVG/1.1/DTD/svg11.dtd">
<svg width="309mm" height="174mm" viewBox="0 0 30900 17400" version="1.1" xmlns="http://www.w3.org/2000/svg" stroke-width="28.222" stroke-linejoin="round" xml:space="preserve">
 <path fill="rgb(255,255,255)" stroke="none" d="M 15449,17379 L 0,17379 0,0 30897,0 30897,17379 15449,17379 Z"/>
 <path fill="none" stroke="rgb(179,179,179)" stroke-linejoin="round" d="M 13178,15509 L 2383,15509 2383,2758 23973,2758 23973,15509 13178,15509 Z"/>
 <path fill="none" stroke="rgb(179,179,179)" stroke-linejoin="round" d="M 23973,15508 L 2383,15508"/>
 <path fill="none" stroke="rgb(179,179,179)" stroke-linejoin="round" d="M 23973,13914 L 2383,13914"/>
 <path fill="none" stroke="rgb(179,179,179)" stroke-linejoin="round" d="M 23973,12320 L 2383,12320"/>
 <path fill="none" stroke="rgb(179,179,179)" stroke-linejoin="round" d="M 23973,10726 L 2383,10726"/>
 <path fill="none" stroke="rgb(179,179,179)" stroke-linejoin="round" d="M 23973,9132 L 2383,9132"/>
 <path fill="none" stroke="rgb(179,179,179)" stroke-linejoin="round" d="M 23973,7539 L 2383,7539"/>
 <path fill="none" stroke="rgb(179,179,179)" stroke-linejoin="round" d="M 23973,5945 L 2383,5945"/>
 <path fill="none" stroke="rgb(179,179,179)" stroke-linejoin="round" d="M 23973,4351 L 2383,4351"/>
 <path fill="none" stroke="rgb(179,179,179)" stroke-linejoin="round" d="M 23973,2757 L 2383,2757"/>
 <path fill="none" stroke="rgb(179,179,179)" stroke-linejoin="round" d="M 2383,15658 L 2383,15508"/>
 <path fill="none" stroke="rgb(179,179,179)" stroke-linejoin="round" d="M 2383,15658 L 2383,15508"/>
 <path fill="none" stroke="rgb(179,179,179)" stroke-linejoin="round" d="M 5081,15658 L 5081,15508"/>
 <path fill="none" stroke="rgb(179,179,179)" stroke-linejoin="round" d="M 5081,15658 L 5081,15508"/>
 <path fill="none" stroke="rgb(179,179,179)" stroke-linejoin="round" d="M 7780,15658 L 7780,15508"/>
 <path fill="none" stroke="rgb(179,179,179)" stroke-linejoin="round" d="M 7780,15658 L 7780,15508"/>
 <path fill="none" stroke="rgb(179,179,179)" stroke-linejoin="round" d="M 10479,15658 L 10479,15508"/>
 <path fill="none" stroke="rgb(179,179,179)" stroke-linejoin="round" d="M 10479,15658 L 10479,15508"/>
 <path fill="none" stroke="rgb(179,179,179)" stroke-linejoin="round" d="M 13178,15658 L 13178,15508"/>
 <path fill="none" stroke="rgb(179,179,179)" stroke-linejoin="round" d="M 13178,15658 L 13178,15508"/>
 <path fill="none" stroke="rgb(179,179,179)" stroke-linejoin="round" d="M 15876,15658 L 15876,15508"/>
 <path fill="none" stroke="rgb(179,179,179)" stroke-linejoin="round" d="M 15876,15658 L 15876,15508"/>
 <path fill="none" stroke="rgb(179,179,179)" stroke-linejoin="round" d="M 18575,15658 L 18575,15508"/>
 <path fill="none" stroke="rgb(179,179,179)" stroke-linejoin="round" d="M 18575,15658 L 18575,15508"/>
 <path fill="none" stroke="rgb(179,179,179)" stroke-linejoin="round" d="M 21274,15658 L 21274,15508"/>
 <path fill="none" stroke="rgb(179,179,179)" stroke-linejoin="round" d="M 21274,15658 L 21274,15508"/>
 <path fill="none" stroke="rgb(179,179,179)" stroke-linejoin="round" d="M 23973,15658 L 23973,15508"/>
 <path fill="none" stroke="rgb(179,179,179)" stroke-linejoin="round" d="M 23973,15658 L 23973,15508"/>
 <path fill="none" stroke="rgb(179,179,179)" stroke-linejoin="round" d="M 2383,15508 L 23973,15508"/>
 <path fill="none" stroke="rgb(179,179,179)" stroke-linejoin="round" d="M 2233,15508 L 2383,15508"/>
 <path fill="none" stroke="rgb(179,179,179)" stroke-linejoin="round" d="M 2233,15508 L 2383,15508"/>
 <path fill="none" stroke="rgb(179,179,179)" stroke-linejoin="round" d="M 2233,13914 L 2383,13914"/>
 <path fill="none" stroke="rgb(179,179,179)" stroke-linejoin="round" d="M 2233,13914 L 2383,13914"/>
 <path fill="none" stroke="rgb(179,179,179)" stroke-linejoin="round" d="M 2233,12320 L 2383,12320"/>
 <path fill="none" stroke="rgb(179,179,179)" stroke-linejoin="round" d="M 2233,12320 L 2383,12320"/>
 <path fill="none" stroke="rgb(179,179,179)" stroke-linejoin="round" d="M 2233,10726 L 2383,10726"/>
 <path fill="none" stroke="rgb(179,179,179)" stroke-linejoin="round" d="M 2233,10726 L 2383,10726"/>
 <path fill="none" stroke="rgb(179,179,179)" stroke-linejoin="round" d="M 2233,9132 L 2383,9132"/>
 <path fill="none" stroke="rgb(179,179,179)" stroke-linejoin="round" d="M 2233,9132 L 2383,9132"/>
 <path fill="none" stroke="rgb(179,179,179)" stroke-linejoin="round" d="M 2233,7539 L 2383,7539"/>
 <path fill="none" stroke="rgb(179,179,179)" stroke-linejoin="round" d="M 2233,7539 L 2383,7539"/>
 <path fill="none" stroke="rgb(179,179,179)" stroke-linejoin="round" d="M 2233,5945 L 2383,5945"/>
 <path fill="none" stroke="rgb(179,179,179)" stroke-linejoin="round" d="M 2233,5945 L 2383,5945"/>
 <path fill="none" stroke="rgb(179,179,179)" stroke-linejoin="round" d="M 2233,4351 L 2383,4351"/>
 <path fill="none" stroke="rgb(179,179,179)" stroke-linejoin="round" d="M 2233,4351 L 2383,4351"/>
 <path fill="none" stroke="rgb(179,179,179)" stroke-linejoin="round" d="M 2233,2757 L 2383,2757"/>
 <path fill="none" stroke="rgb(179,179,179)" stroke-linejoin="round" d="M 2233,2757 L 2383,2757"/>
 <path fill="none" stroke="rgb(179,179,179)" stroke-linejoin="round" d="M 2383,15508 L 2383,2757"/>
 <path fill="none" stroke="rgb(255,66,14)" stroke-width="80" stroke-linejoin="round" d="M 4850,4260 L 5097,4389 5344,4523 5590,4663 5838,4808 6084,4959 6331,5115 6578,5276 6824,5444 7072,5616 7318,5795 7565,5921 7812,6047 8059,6173 8305,6298 8552,6422 8799,6546 9045,6669 9293,6792 9539,6913 9786,7032 10033,7128 10280,7221 10526,7311 10773,7398 11020,7483 11267,7565 11513,7644 11761,7719 12007,7792 12254,7862 12501,7939 12747,8012 12994,8083 13241,8150 13488,8214 13735,8275 13981,8333 14228,8387 14475,8438 14722,8486 14968,8529 15215,8568 15461,8604 15708,8636 15955,8665 16201,8690 16448,8711 16695,8729 16941,8743 17189,8754 17435,8765 17683,8772 17929,8776 18175,8775 18423,8770 18669,8762 18916,8749 19163,8731 19410,8709 19656,8683 19903,8648 20150,8606 20397,8558 20644,8500 20890,8427 21138,8329"/>
 <path fill="none" stroke="rgb(87,157,28)" stroke-width="80" stroke-linejoin="round" d="M 4850,4586 L 7318,5811 9786,6871 12254,7706 14722,8289 17189,8555 19656,8449 20890,8206"/>
 <text class="TextShape"><tspan class="TextParagraph" font-family="Liberation Sans, sans-serif" font-size="353px" font-weight="400"><tspan class="TextPosition" x="2290" y="16049"><tspan fill="rgb(0,0,0)" stroke="none">0</tspan></tspan></tspan></text>
 <text class="TextShape"><tspan class="TextParagraph" font-family="Liberation Sans, sans-serif" font-size="353px" font-weight="400"><tspan class="TextPosition" x="4710" y="16049"><tspan fill="rgb(0,0,0)" stroke="none">5000</tspan></tspan></tspan></text>
 <text class="TextShape"><tspan class="TextParagraph" font-family="Liberation Sans, sans-serif" font-size="353px" font-weight="400"><tspan class="TextPosition" x="7317" y="16049"><tspan fill="rgb(0,0,0)" stroke="none">10000</tspan></tspan></tspan></text>
 <text class="TextShape"><tspan class="TextParagraph" font-family="Liberation Sans, sans-serif" font-size="353px" font-weight="400"><tspan class="TextPosition" x="10016" y="16049"><tspan fill="rgb(0,0,0)" stroke="none">15000</tspan></tspan></tspan></text>
 <text class="TextShape"><tspan class="TextParagraph" font-family="Liberation Sans, sans-serif" font-size="353px" font-weight="400"><tspan class="TextPosition" x="12715" y="16049"><tspan fill="rgb(0,0,0)" stroke="none">20000</tspan></tspan></tspan></text>
 <text class="TextShape"><tspan class="TextParagraph" font-family="Liberation Sans, sans-serif" font-size="353px" font-weight="400"><tspan class="TextPosition" x="15414" y="16049"><tspan fill="rgb(0,0,0)" stroke="none">25000</tspan></tspan></tspan></text>
 <text class="TextShape"><tspan class="TextParagraph" font-family="Liberation Sans, sans-serif" font-size="353px" font-weight="400"><tspan class="TextPosition" x="18113" y="16049"><tspan fill="rgb(0,0,0)" stroke="none">30000</tspan></tspan></tspan></text>
 <text class="TextShape"><tspan class="TextParagraph" font-family="Liberation Sans, sans-serif" font-size="353px" font-weight="400"><tspan class="TextPosition" x="20812" y="16049"><tspan fill="rgb(0,0,0)" stroke="none">35000</tspan></tspan></tspan></text>
 <text class="TextShape"><tspan class="TextParagraph" font-family="Liberation Sans, sans-serif" font-size="353px" font-weight="400"><tspan class="TextPosition" x="23511" y="16049"><tspan fill="rgb(0,0,0)" stroke="none">40000</tspan></tspan></tspan></text>
 <text class="TextShape"><tspan class="TextParagraph" font-family="Liberation Sans, sans-serif" font-size="353px" font-weight="400"><tspan class="TextPosition" x="1948" y="15628"><tspan fill="rgb(0,0,0)" stroke="none">0</tspan></tspan></tspan></text>
 <text class="TextShape"><tspan class="TextParagraph" font-family="Liberation Sans, sans-serif" font-size="353px" font-weight="400"><tspan class="TextPosition" x="1577" y="14034"><tspan fill="rgb(0,0,0)" stroke="none">100</tspan></tspan></tspan></text>
 <text class="TextShape"><tspan class="TextParagraph" font-family="Liberation Sans, sans-serif" font-size="353px" font-weight="400"><tspan class="TextPosition" x="1577" y="12440"><tspan fill="rgb(0,0,0)" stroke="none">200</tspan></tspan></tspan></text>
 <text class="TextShape"><tspan class="TextParagraph" font-family="Liberation Sans, sans-serif" font-size="353px" font-weight="400"><tspan class="TextPosition" x="1577" y="10846"><tspan fill="rgb(0,0,0)" stroke="none">300</tspan></tspan></tspan></text>
 <text class="TextShape"><tspan class="TextParagraph" font-family="Liberation Sans, sans-serif" font-size="353px" font-weight="400"><tspan class="TextPosition" x="1577" y="9252"><tspan fill="rgb(0,0,0)" stroke="none">400</tspan></tspan></tspan></text>
 <text class="TextShape"><tspan class="TextParagraph" font-family="Liberation Sans, sans-serif" font-size="353px" font-weight="400"><tspan class="TextPosition" x="1577" y="7658"><tspan fill="rgb(0,0,0)" stroke="none">500</tspan></tspan></tspan></text>
 <text class="TextShape"><tspan class="TextParagraph" font-family="Liberation Sans, sans-serif" font-size="353px" font-weight="400"><tspan class="TextPosition" x="1577" y="6064"><tspan fill="rgb(0,0,0)" stroke="none">600</tspan></tspan></tspan></text>
 <text class="TextShape"><tspan class="TextParagraph" font-family="Liberation Sans, sans-serif" font-size="353px" font-weight="400"><tspan class="TextPosition" x="1577" y="4470"><tspan fill="rgb(0,0,0)" stroke="none">700</tspan></tspan></tspan></text>
 <text class="TextShape"><tspan class="TextParagraph" font-family="Liberation Sans, sans-serif" font-size="353px" font-weight="400"><tspan class="TextPosition" x="1577" y="2876"><tspan fill="rgb(0,0,0)" stroke="none">800</tspan></tspan></tspan></text>
 <text class="TextShape"><tspan class="TextParagraph" font-family="Liberation Sans, sans-serif" font-size="459px" font-weight="400"><tspan class="TextPosition" x="12803" y="1017"><tspan fill="rgb(0,0,0)" stroke="none">Calculated vs Source Data</tspan></tspan></tspan></text>
 <text class="TextShape"><tspan class="TextParagraph" font-family="Liberation Sans, sans-serif" font-size="388px" font-weight="400"><tspan class="TextPosition" x="14139" y="2043"><tspan fill="rgb(0,0,0)" stroke="none">Impact Velocity</tspan></tspan></tspan></text>
 <path fill="none" stroke="rgb(87,157,28)" stroke-width="80" stroke-linejoin="round" d="M 25171,8467 L 25971,8467"/>
 <path fill="none" stroke="rgb(255,66,14)" stroke-width="80" stroke-linejoin="round" d="M 25171,8911 L 25971,8911"/>
 <text class="TextShape"><tspan class="TextParagraph" font-family="Liberation Sans, sans-serif" font-size="353px" font-weight="400"><tspan class="TextPosition" x="26071" y="8586"><tspan fill="rgb(0,0,0)" stroke="none">Impact Velocity (source data)</tspan></tspan></tspan></text>
 <text class="TextShape"><tspan class="TextParagraph" font-family="Liberation Sans, sans-serif" font-size="353px" font-weight="400"><tspan class="TextPosition" x="26071" y="9030"><tspan fill="rgb(0,0,0)" stroke="none">Impact Velocity (calculated)</tspan></tspan></tspan></text>
 <text class="TextShape"><tspan class="TextParagraph" font-family="Liberation Sans, sans-serif" font-size="318px" font-weight="400"><tspan class="TextPosition" x="12239" y="16811"><tspan fill="rgb(0,0,0)" stroke="none">Range (m)</tspan></tspan></tspan></text>
 <text class="TextShape" transform="translate(811,10812) rotate(-90) translate(-811,-10812)"><tspan class="TextParagraph" font-family="Liberation Sans, sans-serif" font-size="318px" font-weight="400"><tspan class="TextPosition" x="811" y="10812"><tspan fill="rgb(0,0,0)" stroke="none">Impact Velocity (m/s)</tspan></tspan></tspan></text>
</svg>